<?xml version="1.0" encoding="iso-8859-1"?>
<!-- Uploaded to: SVG Repo, www.svgrepo.com, Generator: SVG Repo Mixer Tools -->
<!DOCTYPE svg PUBLIC "-//W3C//DTD SVG 1.1//EN" "http://www.w3.org/Graphics/SVG/1.1/DTD/svg11.dtd">
<svg height="800px" width="800px" version="1.1" id="Capa_1" xmlns="http://www.w3.org/2000/svg" xmlns:xlink="http://www.w3.org/1999/xlink" 
	 viewBox="0 0 430.808 430.808" xml:space="preserve">
<g>
	<path style="fill:#E85512;" d="M208.078,207.178c-15.808-9.715-29.746-24.08-40.11-41.77c-2.792-4.765-1.192-10.892,3.573-13.683
		c4.765-2.792,10.892-1.192,13.683,3.573c6.907,11.788,15.622,21.77,25.426,29.386c0.845-10.973,0.612-19.821-1.531-26.431
		c-2.441-7.529-7.888-14.95-31.006-18.232c-4.518-0.644-8.637-0.97-12.245-0.97c-23.975,0-29.008,12.969-36.298,64.511
		c-4.379,30.733-3.142,48.674,4.007,58.181c4.652,6.186,12.781,9.906,25.584,11.707c3.651,0.513,7.037,0.773,10.064,0.773
		c6.31,0,11.75-0.97,16.466-3.991c0.288-0.219,0.587-0.417,0.895-0.602c9.358-6.654,15.782-22.003,20.46-55.054
		C207.406,212.039,207.748,209.585,208.078,207.178z"/>
	<path style="fill:#FFEBD4;" d="M188.291,96.133c20.99,0,38.066-17.081,38.066-38.076c0-20.984-17.077-38.057-38.066-38.057
		c-20.992,0-38.07,17.072-38.07,38.057C150.221,79.052,167.299,96.133,188.291,96.133z"/>
	<path style="fill:#B4F0DF;" d="M377.359,355.808c-15.164,0-27.5,12.336-27.5,27.5c0,15.164,12.336,27.5,27.5,27.5
		s27.5-12.336,27.5-27.5C404.859,368.144,392.522,355.808,377.359,355.808z"/>
	<path d="M295.311,398.788l-20.733,7.87c-6.952-75.883-44.83-114.032-66.926-130.073c10.349-13.506,15.636-34.056,19.195-59.199
		c0.056-0.392,0.108-0.768,0.163-1.157c2.825,0.988,5.682,1.842,8.567,2.538c6.74,1.626,13.479,2.434,20.154,2.434
		c16.078,0,31.788-4.685,46.253-13.902c4.657-2.968,6.027-9.15,3.06-13.808c-2.968-4.658-9.149-6.027-13.808-3.06
		c-15.78,10.056-33.403,13.131-50.968,8.894c-3.591-0.866-7.137-2.037-10.617-3.48c1.968-17.814,2.244-32.191-1.507-43.761
		c-7.666-23.64-30.62-29.508-47.214-31.864c-5.521-0.787-10.448-1.169-15.062-1.169c-20.023,0-33.832,7.763-42.216,23.733
		c-2.752,5.242-4.902,11.245-6.709,18.057c-15.827,7.193-29.004,17.796-38.301,30.909c-10.891,15.359-16.212,33.868-15.389,53.527
		c0.225,5.376,4.653,9.581,9.984,9.581c0.141,0,0.284-0.003,0.426-0.009c5.518-0.231,9.804-4.892,9.573-10.41
		c-0.992-23.694,9.458-44.28,28.609-57.784c-0.696,4.465-1.377,9.156-2.076,14.095c-5.326,37.386-3.06,58.539,7.824,73.012
		c4.802,6.386,11.139,11.155,19.363,14.522c-0.572,20.371-15.149,32.235-28.443,36.342c-16.616,5.132-41.331,1.293-56.302-26.418
		c-1.35-2.498-3.697-4.305-6.457-4.969c-2.759-0.663-5.672-0.125-8.011,1.485L10.28,313.625c-4.549,3.131-5.699,9.358-2.567,13.907
		c3.132,4.55,9.358,5.699,13.907,2.567l18.854-12.978c14.935,20.839,35.815,29.417,55.147,29.415c6.538,0,12.9-0.982,18.793-2.802
		c23.939-7.396,39.757-26.856,42.212-50.451c4.533,0.628,8.66,0.937,12.598,0.937c8.694,0,16.048-1.554,22.314-4.467
		c18.822,12.184,60.69,48.5,63.95,131.445c0.127,3.215,1.792,6.173,4.476,7.948c1.659,1.097,3.581,1.659,5.517,1.659
		c1.197,0,2.399-0.215,3.548-0.651l33.379-12.67c5.164-1.96,7.76-7.734,5.8-12.898C306.249,399.425,300.474,396.828,295.311,398.788
		z M186.584,269.629c-0.307,0.185-0.607,0.383-0.895,0.602c-4.715,3.021-10.156,3.991-16.466,3.991
		c-3.027,0-6.413-0.26-10.064-0.773c-12.802-1.801-20.932-5.521-25.584-11.707c-7.149-9.507-8.386-27.447-4.007-58.181
		c7.29-51.542,12.324-64.511,36.298-64.511c3.608,0,7.727,0.326,12.245,0.97c23.118,3.283,28.565,10.703,31.006,18.232
		c2.143,6.611,2.376,15.459,1.531,26.431c-9.803-7.615-18.519-17.597-25.426-29.386c-2.791-4.765-8.918-6.365-13.683-3.573
		c-4.765,2.792-6.365,8.918-3.573,13.683c10.364,17.69,24.302,32.055,40.11,41.77c-0.33,2.407-0.672,4.86-1.033,7.397
		C202.366,247.626,195.942,262.976,186.584,269.629z"/>
	<path d="M188.291,116.133c32.018,0,58.066-26.053,58.066-58.076C246.357,26.044,220.309,0,188.291,0
		c-32.02,0-58.07,26.044-58.07,58.057C130.221,90.08,156.271,116.133,188.291,116.133z M188.291,20
		c20.99,0,38.066,17.072,38.066,38.057c0,20.995-17.077,38.076-38.066,38.076c-20.992,0-38.07-17.081-38.07-38.076
		C150.221,37.072,167.299,20,188.291,20z"/>
	<path d="M377.359,335.808c-26.191,0-47.5,21.309-47.5,47.5c0,26.191,21.309,47.5,47.5,47.5s47.5-21.309,47.5-47.5
		C424.859,357.116,403.55,335.808,377.359,335.808z M377.359,410.808c-15.164,0-27.5-12.336-27.5-27.5
		c0-15.164,12.336-27.5,27.5-27.5s27.5,12.336,27.5,27.5C404.859,398.471,392.522,410.808,377.359,410.808z"/>
</g>
</svg>