<?xml version="1.0" ?>
<svg xmlns="http://www.w3.org/2000/svg" xmlns:ev="http://www.w3.org/2001/xml-events" xmlns:xlink="http://www.w3.org/1999/xlink" baseProfile="full" height="237.77347mm" id="svg5" version="1.1" viewBox="0 0 240.56462 237.77347" width="240.56462mm" xml:space="preserve">
	<defs/>
	<path d="M 112.023,237.509 C 94.823,236.247 80.282,232.316 65.721,224.991 C 53.509,218.848 44.187,212.095 34.495,202.372 C 24.639,192.484 17.486,182.434 11.6,170.206 C 3.704,153.805 0.006,137.61 0.0,119.406 C -0.01,92.907 7.917,68.613 23.244,48.164 C 38.351,28.01 58.895,13.322 82.522,5.784 C 95.125,1.763 111.046,-0.44 123.797,0.074 C 145.879,0.962 164.01,6.038 181.741,16.293 C 207.625,31.265 227.691,56.985 235.971,85.804 C 239.282,97.328 240.792,108.967 240.537,120.994 C 240.373,128.734 239.858,133.987 238.618,140.573 C 234.671,161.523 225.914,179.82 212.086,196.003 C 205.23,204.028 195.869,212.204 186.901,218.002 C 182.094,221.11 181.439,221.497 177.376,223.638 C 159.398,233.111 139.866,237.921 119.989,237.77 C 117.281,237.749 113.697,237.632 112.023,237.509 L 112.023,237.509 M 126.443,230.127 C 142.722,229.232 157.208,225.338 171.952,217.893 C 198.217,204.63 218.124,181.735 227.133,154.431 C 231.41,141.468 233.124,130.345 232.864,117.229 C 232.618,104.834 231.022,95.468 227.131,83.598 C 222.832,70.482 215.673,57.736 206.749,47.307 C 204.345,44.498 197.56,37.615 194.441,34.821 C 184.502,25.918 170.416,17.903 157.003,13.517 C 149.433,11.042 139.734,8.959 132.0,8.146 C 124.632,7.372 112.729,7.555 104.963,8.562 C 90.635,10.42 75.049,15.758 62.546,23.088 C 32.932,40.451 12.807,70.661 8.604,104.06 C 7.082,116.155 7.237,126.348 9.111,137.398 C 11.779,153.129 18.013,168.668 26.785,181.451 C 40.531,201.482 60.738,216.701 83.713,224.326 C 94.064,227.762 103.912,229.628 114.272,230.117 C 120.533,230.412 121.247,230.413 126.443,230.127 L 126.443,230.127 M 148.589,208.915 C 148.414,208.74 148.271,208.383 148.271,208.121 C 148.271,207.728 148.047,207.645 146.981,207.645 C 145.952,207.645 145.613,207.761 145.311,208.215 C 144.776,209.021 143.509,208.716 143.509,207.781 C 143.509,206.655 141.81,206.191 140.655,207.0 C 139.799,207.6 139.011,207.268 139.011,206.308 C 139.011,205.678 138.843,205.465 138.103,205.156 C 137.604,204.947 136.172,204.103 134.921,203.279 C 132.457,201.656 130.161,200.615 128.438,200.34 C 127.529,200.194 127.242,200.264 126.719,200.755 C 126.288,201.16 125.919,201.29 125.54,201.17 C 124.984,200.993 124.937,200.89 124.884,199.739 C 124.844,198.886 124.084,198.409 123.467,198.85 C 122.183,199.768 121.424,199.487 121.403,198.087 C 121.403,197.596 121.187,196.751 120.94,196.21 C 120.39,195.008 120.368,193.77 120.87,192.348 C 121.29,191.157 124.341,186.478 124.698,186.478 C 125.097,186.478 125.443,187.113 125.637,188.198 C 126.162,191.143 127.282,192.039 130.412,192.018 C 131.576,192.008 133.005,191.911 133.587,191.797 C 134.633,191.592 134.637,191.587 133.902,191.382 C 133.493,191.269 132.362,191.245 131.388,191.33 C 128.32,191.599 126.945,190.641 126.338,187.812 C 126.088,186.648 126.124,186.405 126.695,185.374 C 127.47,183.977 129.175,179.494 130.126,176.353 C 132.667,167.965 133.109,165.976 133.287,162.137 C 133.462,158.348 134.112,155.454 135.328,153.05 C 136.313,151.104 138.885,146.925 139.67,145.997 C 139.978,145.633 140.569,144.826 140.984,144.204 C 141.716,143.106 141.723,143.061 141.235,142.699 C 140.756,142.344 133.02,139.739 130.593,139.116 C 129.483,138.832 129.421,138.85 128.409,139.764 C 127.836,140.282 127.16,140.702 126.906,140.699 C 126.651,140.699 125.491,139.853 124.327,138.827 C 119.909,134.935 113.147,130.994 107.393,128.958 C 106.219,128.542 107.72,129.576 110.833,131.327 C 114.392,133.329 119.971,136.624 120.684,137.146 C 121.127,137.47 121.122,137.52 120.594,138.104 C 120.286,138.443 119.166,140.031 118.106,141.631 C 117.045,143.232 115.626,145.256 114.952,146.129 C 114.279,147.002 113.401,148.193 113.003,148.775 C 112.604,149.357 112.043,150.115 111.754,150.459 C 111.262,151.046 111.192,151.059 110.599,150.67 C 110.251,150.443 109.239,149.583 108.35,148.76 C 107.461,147.936 106.734,147.365 106.735,147.49 C 106.735,147.846 107.761,149.456 108.795,150.729 L 109.738,151.889 L 108.554,152.978 C 107.902,153.577 106.291,155.042 104.973,156.233 C 102.918,158.091 102.493,158.624 101.989,159.971 C 101.411,161.517 100.329,162.819 99.096,163.454 C 98.601,163.708 93.898,164.187 91.34,164.243 C 91.095,164.253 90.823,164.477 90.737,164.75 C 90.615,165.134 89.662,165.501 86.532,166.367 C 82.764,167.411 82.466,167.54 82.202,168.239 C 81.88,169.094 80.635,169.945 79.085,170.371 C 75.379,171.39 64.139,174.039 63.515,174.041 C 63.101,174.041 62.421,173.841 62.003,173.594 C 61.252,173.151 61.217,173.16 58.787,174.428 C 55.715,176.031 55.669,176.068 55.669,176.954 C 55.669,177.473 55.41,177.882 54.772,178.369 C 54.077,178.898 53.802,179.37 53.558,180.451 C 53.057,182.665 53.011,182.774 52.574,182.774 C 52.244,182.774 52.189,182.56 52.302,181.716 C 52.382,181.134 52.362,180.657 52.252,180.657 C 52.041,180.657 48.743,184.981 48.316,185.818 C 48.167,186.11 47.797,187.391 47.495,188.664 C 46.548,192.653 45.203,194.68 43.506,194.68 C 42.288,194.68 41.302,194.019 41.516,193.345 C 41.733,192.663 41.205,191.77 40.586,191.77 C 40.097,191.77 39.528,191.064 39.528,190.458 C 39.528,190.299 39.837,190.051 40.216,189.908 C 40.686,189.729 40.854,189.514 40.745,189.231 C 40.655,189.003 40.586,188.585 40.586,188.302 C 40.586,188.003 40.321,187.687 39.952,187.547 C 39.604,187.415 39.263,187.15 39.194,186.958 C 38.998,186.41 39.495,185.684 40.066,185.684 C 40.827,185.684 40.806,183.969 40.046,183.559 C 39.305,183.163 39.478,182.207 40.366,181.782 C 41.581,181.202 42.954,176.722 42.966,173.301 C 42.966,171.383 42.966,171.367 42.164,171.088 C 41.505,170.858 41.37,170.679 41.436,170.12 C 41.496,169.638 41.714,169.388 42.178,169.28 C 42.689,169.162 42.859,168.934 42.923,168.28 C 42.993,167.59 42.883,167.376 42.342,167.13 C 41.118,166.572 41.189,165.39 42.462,165.136 C 43.017,165.025 43.251,164.789 43.377,164.218 C 43.641,163.016 44.803,162.538 47.47,162.536 C 49.385,162.536 49.955,162.644 51.306,163.276 C 52.179,163.685 53.167,164.277 53.503,164.593 L 54.114,165.167 L 55.886,164.557 C 56.86,164.221 59.443,163.078 61.625,162.016 C 65.239,160.257 65.878,159.835 68.769,157.292 C 72.286,154.199 74.239,153.077 78.065,151.953 C 80.078,151.361 86.072,150.38 86.297,150.605 C 86.337,150.647 86.193,151.026 85.973,151.448 C 85.313,152.713 85.443,156.347 86.248,159.13 C 87.013,161.774 88.105,164.361 88.647,164.811 C 89.15,165.228 89.116,165.041 88.231,162.534 C 87.243,159.733 86.628,156.766 86.63,154.805 C 86.63,153.404 86.745,153.108 87.949,151.34 C 89.2,149.504 89.968,147.532 90.881,143.814 C 91.234,142.376 91.495,142.295 93.664,142.949 C 95.776,143.587 98.771,143.872 101.048,143.653 C 103.374,143.428 103.249,143.363 99.328,142.759 C 96.694,142.353 90.02,140.668 90.145,140.441 C 90.185,140.368 91.453,137.808 92.963,134.752 C 94.473,131.696 96.067,128.749 96.505,128.203 C 97.238,127.289 97.272,127.157 96.938,126.533 C 96.627,125.951 96.63,125.819 96.958,125.611 C 97.17,125.477 97.502,125.366 97.696,125.363 C 97.89,125.363 98.004,125.27 97.949,125.161 C 95.458,120.222 94.947,117.323 95.663,112.196 L 95.968,110.014 L 98.243,110.013 C 100.93,110.013 103.733,109.553 107.947,108.421 C 109.637,107.967 111.052,107.633 111.091,107.68 C 111.131,107.727 111.473,108.263 111.852,108.872 C 112.232,109.481 113.046,110.464 113.661,111.055 C 114.276,111.646 114.726,112.131 114.66,112.131 C 114.6,112.132 112.993,112.668 111.101,113.323 C 108.099,114.362 107.847,114.492 109.117,114.345 C 109.917,114.252 111.543,113.898 112.728,113.559 C 113.914,113.219 115.003,112.908 115.148,112.867 C 115.847,112.668 135.575,127.076 135.575,127.786 C 135.575,127.927 135.24,128.54 134.829,129.148 C 134.019,130.349 133.317,131.92 133.505,132.109 C 133.565,132.174 134.067,131.645 134.61,130.934 C 136.925,127.898 141.94,123.878 145.226,122.425 C 146.727,121.761 146.428,121.565 151.402,126.475 C 155.167,130.191 157.579,133.276 159.475,136.8 C 160.144,138.044 160.211,138.389 160.104,140.044 C 159.987,141.847 159.232,144.327 158.492,145.338 C 158.139,145.822 158.075,145.811 156.574,145.012 C 152.516,142.85 145.989,141.5 143.268,142.26 C 141.86,142.654 142.461,143.011 144.832,143.19 C 149.972,143.578 157.532,146.235 157.745,147.728 C 157.785,148.025 157.457,148.772 157.011,149.389 L 156.198,150.51 L 155.081,149.752 C 153.037,148.366 147.903,145.789 146.065,145.228 C 143.342,144.396 142.427,144.548 144.836,145.432 C 145.927,145.832 147.415,146.475 148.143,146.86 C 149.242,147.441 149.354,147.562 148.805,147.575 C 148.284,147.587 148.437,147.726 149.528,148.234 C 150.967,148.904 154.126,150.71 154.991,151.357 C 155.466,151.713 155.418,151.858 153.91,154.618 C 151.719,158.628 151.573,159.038 151.987,160.038 C 152.308,160.813 152.219,161.055 150.058,165.264 C 147.169,170.893 142.405,179.509 141.651,180.472 C 141.331,180.879 140.726,181.281 140.306,181.365 C 139.608,181.504 139.485,181.708 138.908,183.667 C 137.71,187.734 137.695,187.884 138.393,188.695 C 138.735,189.093 139.015,189.64 139.015,189.911 C 139.015,190.645 139.296,191.241 139.643,191.241 C 140.097,191.241 141.97,192.275 142.653,192.902 C 143.811,193.967 143.113,194.24 141.477,193.364 C 140.941,193.076 140.447,192.895 140.381,192.961 C 140.166,193.177 141.556,195.025 143.766,197.458 L 145.927,199.84 L 145.051,199.976 C 144.354,200.084 144.274,200.152 144.659,200.306 C 144.926,200.413 145.48,200.501 145.891,200.501 C 146.803,200.501 149.716,201.78 151.325,202.887 C 153.309,204.252 153.857,206.056 152.653,207.26 C 152.296,207.617 151.714,207.909 151.361,207.909 C 150.967,207.909 150.55,208.166 150.284,208.571 C 149.818,209.282 149.105,209.427 148.593,208.915 L 148.589,208.915 M 140.33,168.543 C 144.127,159.891 144.341,159.571 146.617,159.138 C 147.431,158.984 149.446,159.243 150.454,159.633 C 151.355,159.981 150.903,159.279 149.925,158.812 C 148.368,158.068 146.448,158.007 145.168,158.661 C 144.153,159.178 142.98,160.348 142.98,160.842 C 142.98,160.964 141.806,163.894 140.371,167.355 C 136.438,176.841 136.417,177.46 140.331,168.543 L 140.33,168.543 M 51.261,173.05 C 50.722,171.833 50.609,171.224 50.697,170.004 C 50.822,168.26 51.383,167.334 52.761,166.595 L 53.675,166.105 L 52.925,166.105 C 51.318,166.105 49.561,168.98 49.958,170.96 C 50.146,171.903 51.463,174.572 51.739,174.572 C 51.846,174.572 51.631,173.887 51.261,173.05 L 51.261,173.05 M 47.594,168.974 C 48.751,166.85 48.213,167.25 46.557,169.747 C 45.21,171.777 45.136,171.951 45.95,171.175 C 46.46,170.689 47.2,169.699 47.594,168.974 M 82.802,163.963 C 81.559,161.247 81.257,159.435 81.384,155.457 C 81.444,153.455 81.414,151.818 81.314,151.818 C 80.717,151.818 80.433,152.87 80.329,155.473 C 80.202,158.628 80.603,160.713 81.784,163.044 C 83.174,165.789 83.962,166.501 82.8,163.963 L 82.802,163.963 M 84.183,157.576 C 83.968,155.738 83.963,154.589 84.163,153.485 C 84.443,151.961 84.414,151.555 84.05,151.919 C 83.705,152.264 83.646,157.247 83.97,158.802 C 84.144,159.64 84.33,160.283 84.383,160.229 C 84.433,160.176 84.343,158.982 84.181,157.576 L 84.183,157.576 M 151.711,153.659 C 148.844,151.14 139.976,146.35 139.526,147.078 C 139.401,147.28 139.425,147.578 139.586,147.768 C 139.738,147.952 142.202,149.316 145.061,150.799 C 147.92,152.282 150.783,153.773 151.423,154.112 C 153.034,154.965 153.094,154.872 151.714,153.659 L 151.711,153.659 M 96.942,140.563 C 100.11,139.827 103.664,138.525 106.732,136.978 C 109.578,135.542 112.064,134.118 111.756,134.099 C 111.686,134.099 110.403,134.619 108.915,135.265 C 105.571,136.717 99.576,138.932 95.884,140.081 C 93.535,140.812 93.269,140.947 94.164,140.954 C 94.746,140.954 95.996,140.782 96.942,140.563 L 96.942,140.563 M 128.295,126.978 L 130.147,126.81 L 127.105,126.615 C 123.54,126.387 115.043,126.351 115.258,126.565 C 115.735,127.042 124.516,127.32 128.295,126.978 L 128.295,126.978 M 169.835,208.956 C 165.496,208.386 160.882,205.463 158.356,201.686 C 155.945,198.082 154.892,194.029 155.363,190.17 C 156.484,180.978 163.623,174.572 172.745,174.572 C 184.496,174.572 192.674,185.8 189.127,197.061 C 187.574,201.99 183.977,205.838 178.948,207.951 C 176.219,209.098 173.333,209.416 169.835,208.956 L 169.835,208.956 M 175.786,207.652 C 176.708,207.069 175.546,206.776 171.988,206.695 C 169.18,206.631 168.357,206.695 168.115,206.984 C 167.866,207.284 167.975,207.402 168.689,207.608 C 169.841,207.94 175.277,207.973 175.786,207.652 L 175.786,207.652 M 176.794,204.352 C 177.671,203.414 178.467,202.4 178.562,202.1 C 178.684,201.716 178.343,200.869 177.412,199.242 L 176.087,196.929 L 172.697,196.864 L 169.306,196.799 L 167.616,198.949 L 165.926,201.098 L 166.518,202.316 C 167.278,203.882 168.573,205.513 169.281,205.8 C 169.585,205.923 171.042,206.031 172.517,206.041 L 175.198,206.058 L 176.794,204.352 M 186.894,199.681 C 187.945,197.653 188.753,195.164 188.751,193.961 L 188.751,192.96 L 188.1,193.754 C 187.743,194.191 187.445,194.7 187.44,194.885 C 187.42,195.576 186.356,198.251 185.714,199.221 C 185.26,199.906 185.051,200.584 185.055,201.355 L 185.055,202.485 L 185.588,201.824 C 185.881,201.46 186.467,200.496 186.889,199.681 L 186.894,199.681 M 183.461,200.49 C 184.628,200.18 185.329,199.166 186.391,196.258 L 187.203,194.033 L 186.069,191.829 C 185.446,190.616 184.782,189.497 184.595,189.342 C 184.175,188.993 179.248,190.062 179.091,190.536 C 179.031,190.705 178.497,192.177 177.895,193.806 L 176.801,196.769 L 178.08,198.922 L 179.36,201.074 L 180.947,200.906 C 181.821,200.813 182.952,200.626 183.461,200.49 L 183.461,200.49 M 166.991,198.672 C 167.9,197.521 168.641,196.42 168.637,196.225 C 168.637,196.03 168.229,194.506 167.741,192.838 L 166.852,189.806 L 164.341,189.159 C 162.961,188.804 161.661,188.578 161.454,188.658 C 161.247,188.738 160.44,189.724 159.661,190.85 L 158.245,192.898 L 158.525,194.385 C 159.004,196.929 159.865,198.875 160.703,199.308 C 161.293,199.613 164.563,200.658 165.205,200.746 C 165.275,200.756 166.081,199.823 166.991,198.672 L 166.991,198.672 M 158.721,197.48 C 158.362,196.411 157.941,194.938 157.784,194.208 C 157.513,192.947 156.666,191.754 156.3,192.12 C 155.789,192.631 157.193,197.803 158.36,199.707 C 158.913,200.611 158.932,200.618 159.15,200.028 C 159.307,199.605 159.18,198.84 158.721,197.48 M 181.973,188.886 C 183.118,188.612 184.158,188.226 184.284,188.028 C 184.409,187.83 184.513,186.617 184.515,185.331 L 184.515,182.993 L 182.925,181.336 C 182.05,180.425 180.757,179.366 180.053,178.982 L 178.772,178.285 L 176.418,178.959 C 175.124,179.33 173.915,179.827 173.734,180.064 C 173.527,180.333 173.403,181.363 173.403,182.812 C 173.403,185.008 173.443,185.156 174.088,185.606 C 174.465,185.867 175.686,186.815 176.8,187.712 C 177.915,188.61 179.065,189.353 179.356,189.364 C 179.647,189.375 180.823,189.16 181.969,188.886 L 181.973,188.886 M 169.979,187.12 L 172.878,185.115 L 172.878,182.483 C 172.878,179.455 173.22,179.826 169.334,178.649 L 167.245,178.016 L 165.828,178.827 C 165.049,179.273 163.756,180.236 162.956,180.968 L 161.501,182.298 L 161.501,184.902 C 161.501,186.429 161.615,187.576 161.777,187.676 C 162.106,187.879 166.244,189.068 166.738,189.101 C 166.926,189.114 168.385,188.222 169.979,187.12 L 169.979,187.12 M 186.076,182.443 C 185.148,180.682 179.685,176.407 179.105,176.988 C 178.759,177.333 179.335,177.928 180.864,178.805 C 181.751,179.314 183.061,180.386 183.775,181.186 C 184.941,182.495 185.557,182.964 186.182,183.02 C 186.297,183.03 186.252,182.771 186.076,182.443 L 186.076,182.443 M 161.236,181.728 C 161.236,181.338 164.4,178.869 165.653,178.28 C 166.703,177.786 167.545,176.824 167.216,176.495 C 166.866,176.145 163.528,178.154 161.796,179.758 C 160.76,180.716 159.913,181.609 159.913,181.74 C 159.913,181.872 160.211,181.98 160.575,181.98 C 160.938,181.98 161.236,181.867 161.236,181.728 L 161.236,181.728 M 134.764,123.923 C 133.389,122.861 129.228,119.82 125.517,117.166 C 121.806,114.512 118.541,112.12 118.26,111.85 C 117.758,111.367 117.762,111.355 118.525,111.064 C 121.484,109.935 123.921,109.429 126.576,109.391 C 129.303,109.352 129.392,109.37 131.47,110.386 C 134.834,112.03 137.08,113.393 140.202,115.689 C 141.802,116.867 143.932,118.411 144.935,119.121 L 146.758,120.412 L 145.2,120.988 C 143.388,121.657 141.373,122.824 139.294,124.408 C 138.483,125.025 137.695,125.603 137.542,125.693 C 137.389,125.782 136.139,124.985 134.764,123.923 L 134.764,123.923 M 115.381,109.353 C 114.408,108.407 113.611,107.469 113.611,107.266 C 113.611,106.791 114.575,106.627 118.654,106.411 C 122.397,106.212 124.962,106.623 127.105,107.767 L 128.295,108.402 L 126.684,108.414 C 124.717,108.429 121.657,109.185 119.196,110.265 C 118.185,110.709 117.312,111.072 117.255,111.072 C 117.195,111.072 116.355,110.298 115.381,109.353 L 115.381,109.353 M 129.883,108.002 C 129.155,107.488 127.658,106.609 126.556,106.048 C 125.454,105.487 123.401,104.246 121.992,103.292 C 119.127,101.349 117.468,100.457 114.974,99.518 C 113.194,98.848 109.648,98.013 109.445,98.216 C 109.375,98.281 110.202,98.594 111.271,98.911 C 113.725,99.639 116.665,101.099 119.922,103.207 L 122.467,104.854 L 118.767,105.012 C 114.589,105.19 113.028,105.445 108.319,106.721 C 106.5,107.214 103.955,107.8 102.662,108.022 C 100.057,108.47 95.355,108.569 95.355,108.175 C 95.355,107.672 96.752,103.504 97.249,102.527 C 97.529,101.975 98.16,101.079 98.651,100.535 C 99.336,99.777 99.615,99.153 99.852,97.847 C 100.23,95.759 100.573,95.085 101.914,93.786 L 102.961,92.773 L 103.149,94.777 C 103.535,98.892 103.816,98.262 103.67,93.609 C 103.526,89.038 103.534,88.947 104.302,86.466 C 104.73,85.083 105.171,83.416 105.283,82.761 C 105.395,82.107 105.518,81.69 105.556,81.835 C 105.596,81.981 105.883,83.231 106.199,84.613 C 106.793,87.216 108.522,91.17 109.785,92.816 C 110.628,93.913 110.599,93.813 109.327,91.228 C 107.792,88.107 106.501,83.199 105.949,78.385 C 105.649,75.765 105.622,69.351 105.899,65.765 L 106.076,63.453 L 105.281,63.173 C 103.75,62.632 101.389,62.586 99.326,63.056 C 96.011,63.812 96.256,63.921 94.793,61.039 C 93.23,57.958 92.488,55.197 92.271,51.645 L 92.107,48.971 L 94.195,48.649 L 96.284,48.328 L 98.93,49.381 C 101.292,50.321 103.65,51.023 103.295,50.681 C 102.87,50.271 98.147,48.364 97.54,48.358 C 96.044,48.341 97.665,47.836 99.769,47.663 C 101.166,47.548 102.615,47.196 104.221,46.582 C 110.993,43.991 113.355,43.819 115.781,45.74 C 116.334,46.178 117.081,46.514 117.501,46.515 C 118.688,46.515 120.311,47.047 120.956,47.643 C 121.284,47.946 121.551,48.064 121.551,47.906 C 121.551,47.359 119.919,46.248 118.869,46.08 C 116.415,45.688 119.423,45.122 125.917,44.756 L 128.298,44.621 L 128.755,46.559 C 130.288,53.064 135.859,59.314 139.735,58.877 C 141.437,58.685 143.405,56.888 144.115,54.878 C 144.165,54.749 144.773,54.898 145.476,55.208 C 147.561,56.131 148.5,55.984 150.725,54.389 C 151.12,54.106 151.459,54.192 152.916,54.947 C 155.984,56.536 159.212,61.131 160.665,65.979 C 160.973,67.009 161.471,68.072 161.77,68.343 C 162.069,68.614 162.572,69.261 162.888,69.779 C 163.203,70.298 163.913,71.329 164.467,72.07 C 165.02,72.811 165.472,73.545 165.472,73.703 C 165.472,73.86 164.788,74.474 163.951,75.068 C 162.298,76.24 162.266,76.443 163.861,75.628 C 164.997,75.049 164.973,75.036 166.225,76.858 L 166.805,77.701 L 166.007,78.842 C 165.568,79.47 165.144,80.4 165.065,80.909 C 164.931,81.778 164.961,81.754 165.554,80.512 C 166.359,78.827 166.751,78.502 169.186,77.496 C 171.423,76.572 172.859,75.275 174.701,72.513 L 175.802,70.864 L 175.095,69.471 C 174.381,68.062 174.388,68.108 173.869,60.808 C 173.733,58.891 175.667,59.785 176.305,61.935 C 177.181,64.881 177.652,64.985 179.255,62.587 C 181.314,59.505 182.112,58.955 183.037,59.977 C 183.285,60.251 183.84,60.546 184.271,60.632 C 184.727,60.723 185.171,61.04 185.333,61.39 C 185.486,61.721 185.991,62.17 186.454,62.388 C 187.096,62.691 187.3,62.96 187.309,63.516 C 187.309,63.97 187.552,64.409 187.931,64.674 C 188.409,65.009 188.508,65.265 188.389,65.862 C 188.267,66.47 188.329,66.622 188.706,66.622 C 189.337,66.622 189.811,67.134 189.811,67.816 C 189.811,68.423 188.933,69.341 187.348,70.39 C 186.794,70.757 185.985,71.541 185.549,72.133 C 184.65,73.357 183.558,74.098 181.963,74.569 C 180.882,74.888 180.823,74.97 178.817,78.894 C 177.693,81.094 176.443,83.37 176.04,83.952 C 175.638,84.534 173.769,86.528 171.887,88.384 C 168.742,91.486 168.387,91.757 167.484,91.757 C 165.812,91.757 162.524,89.736 161.078,87.819 C 160.572,87.147 158.883,85.199 157.326,83.489 C 154.841,80.762 154.39,80.38 153.65,80.38 C 152.898,80.38 152.648,80.156 151.358,78.33 C 150.561,77.202 149.613,76.002 149.251,75.664 C 148.674,75.125 148.523,75.092 148.035,75.397 C 147.728,75.588 147.478,75.818 147.478,75.907 C 147.478,75.996 145.93,77.414 144.038,79.057 C 142.146,80.7 140.598,82.091 140.598,82.148 C 140.598,82.398 141.83,81.55 143.397,80.221 C 144.332,79.428 145.096,78.859 145.096,78.956 C 145.096,79.053 144.637,79.86 144.076,80.748 C 142.614,83.063 141.864,84.634 140.715,87.789 C 139.501,91.119 139.104,91.842 137.118,94.342 C 136.227,95.462 135.466,96.731 135.294,97.384 C 134.771,99.368 133.655,102.454 133.222,103.117 C 132.982,103.485 132.685,104.849 132.532,106.292 C 132.213,109.307 131.96,109.47 129.883,108.002 L 129.883,108.002 M 127.993,104.391 C 127.882,104.209 126.609,102.46 125.163,100.504 C 121.535,95.598 120.125,93.618 118.188,90.712 C 117.271,89.336 116.521,88.298 116.521,88.404 C 116.521,89.167 119.935,94.907 122.211,97.975 C 124.312,100.805 128.927,105.926 127.993,104.391 L 127.993,104.391 M 129.332,97.6 C 129.089,96.994 128.847,96.541 128.794,96.594 C 128.744,96.647 128.894,97.189 129.133,97.799 C 129.373,98.408 129.614,98.861 129.671,98.805 C 129.731,98.749 129.571,98.207 129.332,97.6 M 128.196,95.126 C 127.935,94.867 127.904,94.897 128.048,95.274 C 128.148,95.535 128.295,95.682 128.377,95.601 C 128.457,95.52 128.377,95.306 128.196,95.126 L 128.196,95.126 M 112.824,84.694 C 111.014,80.36 109.613,76.079 108.977,72.938 C 108.73,71.719 108.468,70.663 108.394,70.591 C 108.179,70.378 108.601,74.261 109.008,76.236 C 109.537,78.808 110.529,81.636 111.787,84.157 C 112.873,86.335 114.202,88.609 114.32,88.491 C 114.35,88.457 113.681,86.748 112.824,84.694 L 112.824,84.694 M 127.634,79.478 C 127.634,79.418 126.592,78.809 125.319,78.123 C 124.045,77.438 122.408,76.448 121.681,75.923 C 120.953,75.399 120.536,75.196 120.755,75.471 C 121.282,76.138 124.399,78.146 126.123,78.929 C 127.696,79.644 127.634,79.622 127.634,79.478 L 127.634,79.478 M 120.434,76.717 C 119.494,75.721 117.876,73.761 116.838,72.362 C 114.857,69.692 111.494,64.41 111.494,63.969 C 111.494,63.824 110.605,63.711 109.466,63.711 C 107.162,63.711 107.109,63.936 109.307,64.375 L 110.815,64.676 L 112.026,66.783 C 114.712,71.457 117.751,75.269 120.58,77.512 C 121.284,78.071 121.924,78.528 122.001,78.528 C 122.081,78.528 121.373,77.713 120.434,76.717 L 120.434,76.717 M 162.047,69.685 C 161.433,68.946 159.606,68.434 158.458,68.681 L 157.4,68.907 L 158.992,69.094 C 159.868,69.196 160.939,69.499 161.373,69.767 C 162.253,70.31 162.536,70.275 162.047,69.685 M 156.695,68.369 C 157.883,67.619 158.552,66.679 158.741,65.496 C 158.873,64.669 158.857,64.679 158.305,65.768 C 157.99,66.389 157.194,67.372 156.536,67.951 C 155.176,69.148 155.231,69.293 156.695,68.369 M 186.768,68.209 L 187.297,67.982 L 186.768,67.967 C 186.477,67.957 186.061,68.068 185.842,68.209 C 185.489,68.437 185.489,68.464 185.842,68.451 C 186.061,68.441 186.477,68.334 186.768,68.209 L 186.768,68.209 M 183.986,65.7 C 185.234,64.413 184.887,64.324 183.536,65.584 C 182.924,66.155 182.574,66.622 182.758,66.622 C 182.942,66.622 183.495,66.207 183.986,65.7 M 153.426,63.821 C 153.907,61.973 153.918,58.909 153.446,57.626 C 153.141,56.793 153.12,56.955 153.236,59.24 C 153.348,61.45 153.078,64.249 152.608,65.759 C 152.479,66.174 152.493,66.178 152.742,65.794 C 152.896,65.558 153.202,64.669 153.424,63.82 L 153.426,63.821 M 181.423,63.889 L 181.827,63.272 L 180.955,63.691 C 180.476,63.92 180.136,64.198 180.2,64.307 C 180.431,64.698 181.026,64.494 181.423,63.889 M 138.137,62.876 C 140.997,61.806 143.501,59.712 144.683,57.403 C 145.349,56.101 145.048,56.141 144.104,57.479 C 142.61,59.599 139.324,61.841 135.856,63.107 L 134.116,63.742 L 135.429,63.57 C 136.151,63.475 137.369,63.163 138.137,62.875 L 138.137,62.876 M 104.88,55.435 C 101.636,53.67 99.833,52.501 98.364,51.212 C 97.863,50.772 97.398,50.467 97.331,50.535 C 97.087,50.778 100.194,53.945 101.329,54.61 C 102.407,55.242 107.061,57.058 107.658,57.08 C 107.803,57.09 106.553,56.345 104.88,55.435 L 104.88,55.435 M 130.959,55.248 C 129.804,54.693 128.165,54.091 127.316,53.911 C 125.629,53.553 123.131,53.706 121.809,54.248 C 121.077,54.548 121.321,54.586 124.113,54.61 C 126.789,54.632 127.617,54.751 129.883,55.44 C 133.334,56.488 133.481,56.462 130.959,55.248 L 130.959,55.248 M 55.698,94.837 C 55.471,94.564 55.563,93.907 56.078,92.125 C 56.452,90.831 56.87,89.66 57.006,89.522 C 57.416,89.107 57.286,88.756 56.855,89.114 C 56.635,89.297 56.201,90.294 55.892,91.329 C 55.088,94.016 54.712,94.668 53.969,94.668 C 53.194,94.668 53.021,94.252 53.21,92.843 C 53.335,91.911 53.29,91.771 52.932,91.91 C 52.598,92.038 52.469,91.841 52.333,90.989 C 52.228,90.331 52.017,89.905 51.797,89.905 C 51.515,89.905 51.434,89.355 51.434,87.455 L 51.434,85.004 L 53.169,82.891 C 55.274,80.327 56.286,79.388 58.752,77.714 C 60.577,76.475 61.753,75.234 61.753,74.547 C 61.753,74.367 62.678,73.254 63.81,72.074 C 64.941,70.894 67.311,68.024 69.078,65.696 C 72.671,60.959 76.532,57.023 80.818,53.729 C 81.122,53.495 90.473,50.747 90.965,50.747 C 91.005,50.747 91.115,51.729 91.204,52.93 C 91.407,55.673 91.959,57.775 93.098,60.138 C 93.589,61.156 93.957,62.023 93.916,62.064 C 93.876,62.105 92.009,62.106 89.769,62.064 C 85.778,61.992 85.713,61.982 86.491,61.538 C 86.928,61.289 87.166,61.081 87.02,61.076 C 86.436,61.055 85.057,62.139 84.263,63.245 C 83.027,64.967 79.413,68.173 76.557,70.082 C 74.008,71.786 70.634,74.925 68.72,77.374 L 67.656,78.735 L 67.481,82.004 C 67.307,85.233 67.289,85.307 66.01,87.92 C 65.298,89.375 64.584,90.901 64.422,91.311 C 63.981,92.433 63.021,92.202 62.698,90.896 C 62.493,90.067 62.57,89.619 63.161,88.179 C 63.551,87.23 63.869,86.337 63.869,86.195 C 63.869,84.832 60.071,88.547 58.755,91.196 C 58.221,92.271 57.784,93.352 57.784,93.598 C 57.784,94.083 56.735,95.196 56.278,95.196 C 56.123,95.196 55.862,95.034 55.698,94.835 L 55.698,94.837 M 137.752,57.231 C 134.873,55.979 131.225,51.006 130.145,46.857 C 129.568,44.644 129.616,44.133 130.396,44.133 C 130.752,44.133 131.119,44.257 131.213,44.409 C 131.322,44.586 131.684,44.495 132.221,44.155 C 132.968,43.682 133.061,43.483 133.087,42.312 C 133.107,41.59 133.187,40.305 133.272,39.457 C 133.362,38.609 133.342,37.047 133.232,35.987 C 133.124,34.927 133.11,32.724 133.202,31.092 C 133.377,27.942 133.698,26.947 135.007,25.505 C 135.503,24.959 135.571,24.786 135.242,24.909 C 133.994,25.376 133.905,25.343 134.646,24.691 C 135.973,23.522 138.006,22.464 139.541,22.143 C 140.828,21.875 140.923,21.812 140.364,21.604 C 140.017,21.474 139.302,21.437 138.777,21.521 C 137.965,21.65 137.897,21.626 138.324,21.358 C 138.867,21.017 140.375,20.941 142.041,21.171 C 142.615,21.25 143.41,21.201 143.807,21.063 C 144.205,20.924 145.104,20.714 145.806,20.596 L 147.082,20.382 L 145.619,20.351 C 144.68,20.331 143.947,20.467 143.569,20.732 C 143.245,20.959 142.981,21.021 142.981,20.871 C 142.981,20.289 144.632,19.731 146.001,19.85 C 147.573,19.987 151.486,21.611 153.374,22.91 C 154.616,23.764 154.775,23.678 153.88,22.635 C 153.59,22.298 153.572,22.172 153.82,22.172 C 154.27,22.172 157.45,25.518 158.095,26.67 L 158.613,27.596 L 158.513,26.67 C 158.453,26.161 158.323,25.506 158.215,25.215 C 157.874,24.301 159.047,25.867 159.649,27.13 C 160.562,29.045 160.267,31.086 158.898,32.325 C 158.393,32.782 158.381,32.877 158.741,33.574 C 159.192,34.446 158.918,36.252 158.23,36.94 C 157.865,37.305 157.853,37.249 158.117,36.39 C 158.434,35.357 158.067,33.974 157.42,33.724 C 157.168,33.627 157.041,34.379 156.905,36.783 C 156.737,39.757 156.681,40.005 156.068,40.487 C 155.056,41.283 154.715,42.215 154.541,44.662 C 154.391,46.749 154.322,46.959 153.578,47.591 C 153.136,47.966 152.775,48.523 152.775,48.829 C 152.775,49.399 152.14,50.218 151.698,50.218 C 151.563,50.218 151.452,50.545 151.451,50.946 C 151.451,51.476 151.234,51.795 150.657,52.124 C 150.197,52.386 149.865,52.794 149.865,53.097 C 149.865,53.779 148.658,54.716 147.779,54.716 C 147.398,54.716 146.329,54.357 145.403,53.919 L 143.719,53.122 L 142.885,53.638 C 142.426,53.922 141.755,54.48 141.394,54.879 L 140.737,55.604 L 141.571,55.027 C 142.03,54.711 142.477,54.451 142.564,54.451 C 143.229,54.451 141.816,56.714 140.796,57.28 C 140.018,57.713 138.822,57.693 137.758,57.231 L 137.752,57.231 M 138.736,47.603 C 138.451,46.687 138.217,45.273 138.217,44.462 C 138.217,43.65 138.147,43.056 138.062,43.141 C 137.664,43.539 137.96,46.83 138.508,48.104 C 138.824,48.839 139.122,49.402 139.169,49.355 C 139.219,49.308 139.021,48.52 138.736,47.603 L 138.736,47.603 M 134.275,42.148 C 134.457,41.797 134.365,41.841 134.008,42.28 C 133.71,42.644 133.466,43.061 133.465,43.206 C 133.465,43.49 133.829,43.011 134.275,42.148 L 134.275,42.148" id="path33" style="fill:#000000"/>
</svg>
